<?xml version="1.0" encoding="UTF-8" standalone="no"?>
<svg
   xmlns:dc="http://purl.org/dc/elements/1.1/"
   xmlns:cc="http://creativecommons.org/ns#"
   xmlns:rdf="http://www.w3.org/1999/02/22-rdf-syntax-ns#"
   xmlns:svg="http://www.w3.org/2000/svg"
   xmlns="http://www.w3.org/2000/svg"
   xmlns:xlink="http://www.w3.org/1999/xlink"
   xmlns:sodipodi="http://sodipodi.sourceforge.net/DTD/sodipodi-0.dtd"
   xmlns:inkscape="http://www.inkscape.org/namespaces/inkscape"
   width="600"
   height="185"
   viewBox="0 0 600 185"
   version="1.1"
   id="svg1920"
   sodipodi:docname="cont.svg"
   inkscape:version="0.92.5 (2060ec1f9f, 2020-04-08)">
  <metadata
     id="metadata1926">
    <rdf:RDF>
      <cc:Work
         rdf:about="">
        <dc:format>image/svg+xml</dc:format>
        <dc:type
           rdf:resource="http://purl.org/dc/dcmitype/StillImage" />
      </cc:Work>
    </rdf:RDF>
  </metadata>
  <defs
     id="defs1924">
    <marker
       inkscape:stockid="Arrow1Mend"
       orient="auto"
       refY="0.0"
       refX="0.0"
       id="Arrow1Mend"
       style="overflow:visible;"
       inkscape:isstock="true">
      <path
         id="path2082"
         d="M 0.0,0.0 L 5.0,-5.0 L -12.5,0.0 L 5.0,5.0 L 0.0,0.0 z "
         style="fill-rule:evenodd;stroke:#000000;stroke-width:1pt;stroke-opacity:1;fill:#000000;fill-opacity:1"
         transform="scale(0.4) rotate(180) translate(10,0)" />
    </marker>
    <marker
       inkscape:stockid="Arrow1Lend"
       orient="auto"
       refY="0.0"
       refX="0.0"
       id="Arrow1Lend"
       style="overflow:visible;"
       inkscape:isstock="true">
      <path
         id="path2076"
         d="M 0.0,0.0 L 5.0,-5.0 L -12.5,0.0 L 5.0,5.0 L 0.0,0.0 z "
         style="fill-rule:evenodd;stroke:#000000;stroke-width:1pt;stroke-opacity:1;fill:#000000;fill-opacity:1"
         transform="scale(0.8) rotate(180) translate(12.5,0)" />
    </marker>
    <filter
       inkscape:collect="always"
       style="color-interpolation-filters:sRGB"
       id="filter2046"
       x="-0.23925"
       width="1.4785"
       y="-0.29446154"
       height="1.5889231">
      <feGaussianBlur
         inkscape:collect="always"
         stdDeviation="0.78960397"
         id="feGaussianBlur2048" />
    </filter>
    <filter
       inkscape:collect="always"
       style="color-interpolation-filters:sRGB"
       id="filter2046-3"
       x="-0.23925"
       width="1.4785"
       y="-0.29446155"
       height="1.5889231">
      <feGaussianBlur
         inkscape:collect="always"
         stdDeviation="0.78960397"
         id="feGaussianBlur2048-6" />
    </filter>
    <marker
       inkscape:stockid="Arrow1Mend"
       orient="auto"
       refY="0"
       refX="0"
       id="Arrow1Mend-5"
       style="overflow:visible"
       inkscape:isstock="true">
      <path
         inkscape:connector-curvature="0"
         id="path2082-3"
         d="M 0,0 5,-5 -12.5,0 5,5 Z"
         style="fill:#000000;fill-opacity:1;fill-rule:evenodd;stroke:#000000;stroke-width:1.00000003pt;stroke-opacity:1"
         transform="matrix(-0.4,0,0,-0.4,-4,0)" />
    </marker>
  </defs>
  <sodipodi:namedview
     pagecolor="#ffffff"
     bordercolor="#666666"
     borderopacity="1"
     objecttolerance="10"
     gridtolerance="10"
     guidetolerance="10"
     inkscape:pageopacity="0"
     inkscape:pageshadow="2"
     inkscape:window-width="1227"
     inkscape:window-height="593"
     id="namedview1922"
     showgrid="false"
     inkscape:zoom="1"
     inkscape:cx="117.99505"
     inkscape:cy="92.5"
     inkscape:window-x="0"
     inkscape:window-y="27"
     inkscape:window-maximized="0"
     inkscape:current-layer="svg1920" />
  <title
     id="title1553">Gnuplot</title>
  <desc
     id="desc1555">Produced by GNUPLOT 5.2 patchlevel 8 </desc>
  <g
     id="gnuplot_canvas">
    <rect
       x="0"
       y="0"
       width="600"
       height="185"
       fill="none"
       id="rect1557" />
    <defs
       id="defs1585">
      <circle
         id="gpDot"
         r="0.5"
         stroke-width="0.5"
         stroke="currentColor" />
      <path
         id="gpPt0"
         stroke-width="0.267"
         stroke="currentColor"
         d="M-1,0 h2 M0,-1 v2" />
      <path
         id="gpPt1"
         stroke-width="0.267"
         stroke="currentColor"
         d="M-1,-1 L1,1 M1,-1 L-1,1" />
      <path
         id="gpPt2"
         stroke-width="0.267"
         stroke="currentColor"
         d="M-1,0 L1,0 M0,-1 L0,1 M-1,-1 L1,1 M-1,1 L1,-1" />
      <rect
         id="gpPt3"
         stroke-width="0.267"
         stroke="currentColor"
         x="-1"
         y="-1"
         width="2"
         height="2" />
      <rect
         id="gpPt4"
         stroke-width="0.267"
         stroke="currentColor"
         fill="currentColor"
         x="-1"
         y="-1"
         width="2"
         height="2" />
      <circle
         id="gpPt5"
         stroke-width="0.267"
         stroke="currentColor"
         cx="0"
         cy="0"
         r="1" />
      <use
         xlink:href="#gpPt5"
         id="gpPt6"
         fill="currentColor"
         stroke="none" />
      <path
         id="gpPt7"
         stroke-width="0.267"
         stroke="currentColor"
         d="M0,-1.33 L-1.33,0.67 L1.33,0.67 z" />
      <use
         xlink:href="#gpPt7"
         id="gpPt8"
         fill="currentColor"
         stroke="none" />
      <use
         xlink:href="#gpPt7"
         id="gpPt9"
         stroke="currentColor"
         transform="rotate(180)" />
      <use
         xlink:href="#gpPt9"
         id="gpPt10"
         fill="currentColor"
         stroke="none" />
      <use
         xlink:href="#gpPt3"
         id="gpPt11"
         stroke="currentColor"
         transform="rotate(45)" />
      <use
         xlink:href="#gpPt11"
         id="gpPt12"
         fill="currentColor"
         stroke="none" />
      <path
         id="gpPt13"
         stroke-width="0.267"
         stroke="currentColor"
         d="M0,1.330 L1.265,0.411 L0.782,-1.067 L-0.782,-1.076 L-1.265,0.411 z" />
      <use
         xlink:href="#gpPt13"
         id="gpPt14"
         fill="currentColor"
         stroke="none" />
      <filter
         id="textbox"
         filterUnits="objectBoundingBox"
         x="0"
         y="0"
         height="1"
         width="1">
        <feFlood
           flood-color="white"
           flood-opacity="1"
           result="bgnd"
           id="feFlood1575" />
        <feComposite
           in="SourceGraphic"
           in2="bgnd"
           operator="atop"
           id="feComposite1577" />
      </filter>
      <filter
         id="greybox"
         filterUnits="objectBoundingBox"
         x="0"
         y="0"
         height="1"
         width="1">
        <feFlood
           flood-color="lightgrey"
           flood-opacity="1"
           result="grey"
           id="feFlood1580" />
        <feComposite
           in="SourceGraphic"
           in2="grey"
           operator="atop"
           id="feComposite1582" />
      </filter>
    </defs>
    <g
       fill="none"
       color="white"
       stroke="currentColor"
       stroke-width="1.00"
       stroke-linecap="butt"
       stroke-linejoin="miter"
       id="g1587" />
    <g
       fill="none"
       color="black"
       stroke="currentColor"
       stroke-width="1.00"
       stroke-linecap="butt"
       stroke-linejoin="miter"
       id="g1597">
      <path
         stroke="black"
         d="M60.5,135.7 L68.0,135.7  "
         id="path1589" />
      <g
         transform="translate(53.5,139.0)"
         stroke="none"
         fill="black"
         font-family="arial"
         font-size="10.00"
         text-anchor="end"
         id="g1595">
        <text
           id="text1593">
          <tspan
             font-family="arial"
             id="tspan1591"> 0</tspan>
        </text>
      </g>
    </g>
    <g
       fill="none"
       color="black"
       stroke="currentColor"
       stroke-width="1.00"
       stroke-linecap="butt"
       stroke-linejoin="miter"
       id="g1607">
      <path
         stroke="black"
         d="M60.5,111.6 L68.0,111.6  "
         id="path1599" />
      <g
         transform="translate(53.5,114.9)"
         stroke="none"
         fill="black"
         font-family="arial"
         font-size="10.00"
         text-anchor="end"
         id="g1605">
        <text
           id="text1603">
          <tspan
             font-family="arial"
             id="tspan1601"> 0.2</tspan>
        </text>
      </g>
    </g>
    <g
       fill="none"
       color="black"
       stroke="currentColor"
       stroke-width="1.00"
       stroke-linecap="butt"
       stroke-linejoin="miter"
       id="g1617">
      <path
         stroke="black"
         d="M60.5,87.5 L68.0,87.5  "
         id="path1609" />
      <g
         transform="translate(53.5,90.8)"
         stroke="none"
         fill="black"
         font-family="arial"
         font-size="10.00"
         text-anchor="end"
         id="g1615">
        <text
           id="text1613">
          <tspan
             font-family="arial"
             id="tspan1611"> 0.4</tspan>
        </text>
      </g>
    </g>
    <g
       fill="none"
       color="black"
       stroke="currentColor"
       stroke-width="1.00"
       stroke-linecap="butt"
       stroke-linejoin="miter"
       id="g1627">
      <path
         stroke="black"
         d="M60.5,63.4 L68.0,63.4  "
         id="path1619" />
      <g
         transform="translate(53.5,66.7)"
         stroke="none"
         fill="black"
         font-family="arial"
         font-size="10.00"
         text-anchor="end"
         id="g1625">
        <text
           id="text1623">
          <tspan
             font-family="arial"
             id="tspan1621"> 0.6</tspan>
        </text>
      </g>
    </g>
    <g
       fill="none"
       color="black"
       stroke="currentColor"
       stroke-width="1.00"
       stroke-linecap="butt"
       stroke-linejoin="miter"
       id="g1637">
      <path
         stroke="black"
         d="M60.5,39.2 L68.0,39.2  "
         id="path1629" />
      <g
         transform="translate(53.5,42.5)"
         stroke="none"
         fill="black"
         font-family="arial"
         font-size="10.00"
         text-anchor="end"
         id="g1635">
        <text
           id="text1633">
          <tspan
             font-family="arial"
             id="tspan1631"> 0.8</tspan>
        </text>
      </g>
    </g>
    <g
       fill="none"
       color="black"
       stroke="currentColor"
       stroke-width="1.00"
       stroke-linecap="butt"
       stroke-linejoin="miter"
       id="g1647">
      <path
         stroke="black"
         d="M60.5,15.1 L68.0,15.1  "
         id="path1639" />
      <g
         transform="translate(53.5,18.4)"
         stroke="none"
         fill="black"
         font-family="arial"
         font-size="10.00"
         text-anchor="end"
         id="g1645">
        <text
           id="text1643">
          <tspan
             font-family="arial"
             id="tspan1641"> 1</tspan>
        </text>
      </g>
    </g>
    <g
       fill="none"
       color="black"
       stroke="currentColor"
       stroke-width="1.00"
       stroke-linecap="butt"
       stroke-linejoin="miter"
       id="g1657">
      <path
         stroke="black"
         d="M60.5,147.8 L60.5,140.3  "
         id="path1649" />
      <g
         transform="translate(60.5,166.1)"
         stroke="none"
         fill="black"
         font-family="arial"
         font-size="10.00"
         text-anchor="middle"
         id="g1655">
        <text
           id="text1653">
          <tspan
             font-family="arial"
             id="tspan1651"> 0</tspan>
        </text>
      </g>
    </g>
    <g
       fill="none"
       color="black"
       stroke="currentColor"
       stroke-width="1.00"
       stroke-linecap="butt"
       stroke-linejoin="miter"
       id="g1667">
      <path
         stroke="black"
         d="M104.2,147.8 L104.2,140.3  "
         id="path1659" />
      <g
         transform="translate(104.2,166.1)"
         stroke="none"
         fill="black"
         font-family="arial"
         font-size="10.00"
         text-anchor="middle"
         id="g1665">
        <text
           id="text1663">
          <tspan
             font-family="arial"
             id="tspan1661"> 0.2</tspan>
        </text>
      </g>
    </g>
    <g
       fill="none"
       color="black"
       stroke="currentColor"
       stroke-width="1.00"
       stroke-linecap="butt"
       stroke-linejoin="miter"
       id="g1677">
      <path
         stroke="black"
         d="M147.9,147.8 L147.9,140.3  "
         id="path1669" />
      <g
         transform="translate(147.9,166.1)"
         stroke="none"
         fill="black"
         font-family="arial"
         font-size="10.00"
         text-anchor="middle"
         id="g1675">
        <text
           id="text1673">
          <tspan
             font-family="arial"
             id="tspan1671"> 0.4</tspan>
        </text>
      </g>
    </g>
    <g
       fill="none"
       color="black"
       stroke="currentColor"
       stroke-width="1.00"
       stroke-linecap="butt"
       stroke-linejoin="miter"
       id="g1687">
      <path
         stroke="black"
         d="M191.5,147.8 L191.5,140.3  "
         id="path1679" />
      <g
         transform="translate(191.5,166.1)"
         stroke="none"
         fill="black"
         font-family="arial"
         font-size="10.00"
         text-anchor="middle"
         id="g1685">
        <text
           id="text1683">
          <tspan
             font-family="arial"
             id="tspan1681"> 0.6</tspan>
        </text>
      </g>
    </g>
    <g
       fill="none"
       color="black"
       stroke="currentColor"
       stroke-width="1.00"
       stroke-linecap="butt"
       stroke-linejoin="miter"
       id="g1697">
      <path
         stroke="black"
         d="M235.2,147.8 L235.2,140.3  "
         id="path1689" />
      <g
         transform="translate(235.2,166.1)"
         stroke="none"
         fill="black"
         font-family="arial"
         font-size="10.00"
         text-anchor="middle"
         id="g1695">
        <text
           id="text1693">
          <tspan
             font-family="arial"
             id="tspan1691"> 0.8</tspan>
        </text>
      </g>
    </g>
    <g
       fill="none"
       color="black"
       stroke="currentColor"
       stroke-width="1.00"
       stroke-linecap="butt"
       stroke-linejoin="miter"
       id="g1707">
      <path
         stroke="black"
         d="M278.9,147.8 L278.9,140.3  "
         id="path1699" />
      <g
         transform="translate(278.9,166.1)"
         stroke="none"
         fill="black"
         font-family="arial"
         font-size="10.00"
         text-anchor="middle"
         id="g1705">
        <text
           id="text1703">
          <tspan
             font-family="arial"
             id="tspan1701"> 1</tspan>
        </text>
      </g>
    </g>
    <g
       fill="none"
       color="black"
       stroke="currentColor"
       stroke-width="1.00"
       stroke-linecap="butt"
       stroke-linejoin="miter"
       id="g1709" />
    <g
       fill="none"
       color="black"
       stroke="currentColor"
       stroke-width="1.00"
       stroke-linecap="butt"
       stroke-linejoin="miter"
       id="g1719">
      <path
         stroke="black"
         d="M60.5,15.1 L60.5,147.8 L278.9,147.8 M278.9,15.1 M60.5,15.1  "
         id="path1711" />
      <g
         transform="translate(71.4,19.0)"
         stroke="none"
         fill="black"
         font-family="arial"
         font-size="12.00"
         text-anchor="start"
         id="g1717">
        <text
           id="text1715">
          <tspan
             font-family="arial"
             id="tspan1713">A</tspan>
        </text>
      </g>
    </g>
    <g
       fill="none"
       color="black"
       stroke="currentColor"
       stroke-width="1.00"
       stroke-linecap="butt"
       stroke-linejoin="miter"
       id="g1727">
      <g
         transform="translate(29.9,81.5) rotate(270)"
         stroke="none"
         fill="black"
         font-family="arial"
         font-size="10.00"
         text-anchor="middle"
         id="g1725">
        <text
           id="text1723">
          <tspan
             font-family="arial"
             id="tspan1721">SQ at Qo in CIII (relative)</tspan>
        </text>
      </g>
    </g>
    <g
       fill="none"
       color="black"
       stroke="currentColor"
       stroke-width="1.00"
       stroke-linecap="butt"
       stroke-linejoin="miter"
       id="g1735">
      <g
         transform="translate(169.7,178.1)"
         stroke="none"
         fill="black"
         font-family="arial"
         font-size="10.00"
         text-anchor="middle"
         id="g1733">
        <text
           id="text1731">
          <tspan
             font-family="arial"
             id="tspan1729">max ATPase, arbitrary units</tspan>
        </text>
      </g>
    </g>
    <g
       fill="none"
       color="black"
       stroke="currentColor"
       stroke-width="1.00"
       stroke-linecap="butt"
       stroke-linejoin="miter"
       id="g1737" />
    <g
       id="gnuplot_plot_1a">
      <title
         id="title1739">gnuplot_plot_1a</title>
      <g
         fill="none"
         color="white"
         stroke="currentColor"
         stroke-width="1.50"
         stroke-linecap="butt"
         stroke-linejoin="miter"
         id="g1741" />
      <g
         fill="none"
         color="black"
         stroke="currentColor"
         stroke-width="1.50"
         stroke-linecap="butt"
         stroke-linejoin="miter"
         id="g1745">
        <path
           stroke="rgb(245, 121,   0)"
           d="M278.9,135.6 L277.5,135.6 L276.1,135.6 L274.8,135.6 L273.4,135.6 L272.0,135.6 L270.6,135.6 L269.2,135.6   L267.8,135.6 L266.5,135.6 L265.1,135.6 L263.7,135.6 L262.3,135.6 L260.9,135.6 L259.5,135.6 L258.2,135.6   L256.8,135.6 L255.4,135.6 L254.0,135.6 L252.6,135.6 L251.2,135.6 L249.9,135.6 L248.5,135.6 L247.1,135.6   L245.7,135.6 L244.3,135.6 L242.9,135.6 L241.6,135.6 L240.2,135.6 L238.8,135.6 L237.4,135.6 L236.0,135.6   L234.6,135.6 L233.3,135.6 L231.9,135.6 L230.5,135.6 L229.1,135.6 L227.7,135.6 L226.3,135.6 L225.0,135.6   L223.6,135.6 L222.2,135.6 L220.8,135.6 L219.4,135.6 L218.0,135.6 L216.7,135.6 L215.3,135.6 L213.9,135.6   L212.5,135.6 L211.1,135.6 L209.7,135.6 L208.4,135.6 L207.0,135.6 L205.6,135.6 L204.2,135.6 L202.8,135.6   L201.4,135.6 L200.1,135.6 L198.7,135.6 L197.3,135.6 L195.9,135.5 L194.5,135.5 L193.1,135.5 L191.8,135.5   L190.4,135.5 L189.0,135.5 L187.6,135.5 L186.2,135.5 L184.8,135.5 L183.5,135.5 L182.1,135.5 L180.7,135.5   L179.3,135.5 L177.9,135.5 L176.5,135.5 L175.2,135.5 L173.8,135.5 L172.4,135.5 L171.0,135.5 L169.6,135.5   L168.2,135.5 L166.9,135.5 L165.5,135.5 L164.1,135.5 L162.7,135.5 L161.3,135.5 L159.9,135.5 L158.6,135.5   L157.2,135.5  "
           id="path1743" />
      </g>
    </g>
    <g
       id="gnuplot_plot_2a">
      <title
         id="title1748">gnuplot_plot_2a</title>
      <g
         fill="none"
         color="black"
         stroke="currentColor"
         stroke-width="1.50"
         stroke-linecap="butt"
         stroke-linejoin="miter"
         id="g1752">
        <path
           stroke="rgb( 52, 101, 164)"
           d="M71.4,33.9 L72.8,33.9 L74.2,33.9 L75.6,33.9 L77.0,33.9 L78.3,33.9 L79.7,33.9 L81.1,33.9   L82.5,33.9 L83.9,33.9 L85.3,33.9 L86.6,33.9 L88.0,33.9 L89.4,33.9 L90.8,33.9 L92.2,33.9   L93.6,33.9 L94.9,33.9 L96.3,33.9 L97.7,33.9 L99.1,33.9 L100.5,33.9 L101.9,33.9 L103.2,33.9   L104.6,33.9 L106.0,33.9 L107.4,33.9 L108.8,33.9 L110.1,33.9 L111.5,33.9 L112.9,33.9 L114.3,33.9   L115.7,33.9 L117.1,33.9 L118.4,33.9 L119.8,33.9 L121.2,33.9 L122.6,33.9 L124.0,33.9 L125.4,33.9   L126.7,33.9 L128.1,33.9 L129.5,33.9 L130.9,33.9 L132.3,33.9 L133.7,33.9 L135.0,33.9 L136.4,33.9   L137.8,33.9 L139.2,33.9 L140.6,33.9 L142.0,33.9 L143.3,33.9 L144.7,33.9 L146.1,33.9 L147.5,33.9   L148.9,33.9 L150.3,33.9 L151.6,33.9 L153.0,33.9 L154.4,33.9 L155.8,33.9 L157.2,33.9 L158.6,33.9   L159.9,33.9 L161.3,33.9 L162.7,33.9 L164.1,33.9 L165.5,33.9 L166.9,33.9 L168.2,33.9 L169.6,33.9   L171.0,33.9 L172.4,33.9 L173.8,33.9 L175.2,33.9 L176.5,33.9 L177.9,33.9 L179.3,33.9 L180.7,33.9   L182.1,33.9 L183.5,33.9 L184.8,33.9 L186.2,33.9 L187.6,33.9 L189.0,33.9 L190.4,33.9 L191.8,33.9   L193.1,33.9 L194.5,33.9 L195.9,33.9 L197.3,33.9 L198.7,33.9 L200.1,33.9 L201.4,33.9 L202.8,33.9   L204.2,33.9 L205.6,33.9 L207.0,33.9 L208.4,33.9 L209.7,33.9 L211.1,33.9 L212.5,33.9 L213.9,33.9   L215.3,33.9 L216.7,33.9 L218.0,33.9 L219.4,33.9 L220.8,33.9 L222.2,33.9 L223.6,33.9 L225.0,33.9   L226.3,33.9 L227.7,33.9 L229.1,33.9 L230.5,33.9 L231.9,33.9 L233.3,33.9 L234.6,33.9 L236.0,33.9   L237.4,33.9 L238.8,33.9 L240.2,33.9 L241.6,33.9 L242.9,33.9 L244.3,33.9 L245.7,33.9 L247.1,33.9   L248.5,33.9 L249.9,33.9 L251.2,33.9 L252.6,33.9 L254.0,33.9 L255.4,33.9 L256.8,33.9 L258.2,33.9   L259.5,33.9 L260.9,33.9 L262.3,33.9 L263.7,33.9 L265.1,33.9 L266.5,33.9 L267.8,33.9 L269.2,33.9   L270.6,33.9 L272.0,33.9 L273.4,33.9 L274.8,33.9 L276.1,33.9 L277.5,33.9 L278.9,33.9  "
           id="path1750" />
      </g>
    </g>
    <g
       fill="none"
       color="white"
       stroke="rgb( 52, 101, 164)"
       stroke-width="2.00"
       stroke-linecap="butt"
       stroke-linejoin="miter"
       id="g1755" />
    <g
       fill="none"
       color="black"
       stroke="currentColor"
       stroke-width="2.00"
       stroke-linecap="butt"
       stroke-linejoin="miter"
       id="g1757" />
    <g
       fill="none"
       color="black"
       stroke="black"
       stroke-width="1.00"
       stroke-linecap="butt"
       stroke-linejoin="miter"
       id="g1759" />
    <g
       fill="none"
       color="black"
       stroke="currentColor"
       stroke-width="1.00"
       stroke-linecap="butt"
       stroke-linejoin="miter"
       id="g1763">
      <path
         stroke="black"
         d="M60.5,15.1 L60.5,147.8 L278.9,147.8 M278.9,15.1 M60.5,15.1  "
         id="path1761" />
    </g>
    <g
       fill="none"
       color="black"
       stroke="currentColor"
       stroke-width="1.00"
       stroke-linecap="butt"
       stroke-linejoin="miter"
       id="g1765" />
    <g
       fill="none"
       color="black"
       stroke="currentColor"
       stroke-width="1.00"
       stroke-linecap="butt"
       stroke-linejoin="miter"
       id="g1775">
      <path
         stroke="black"
         d="M360.5,140.9 L368.0,140.9  "
         id="path1767" />
      <g
         transform="translate(353.5,144.2)"
         stroke="none"
         fill="black"
         font-family="arial"
         font-size="10.00"
         text-anchor="end"
         id="g1773">
        <text
           id="text1771">
          <tspan
             font-family="arial"
             id="tspan1769"> 0</tspan>
        </text>
      </g>
    </g>
    <g
       fill="none"
       color="black"
       stroke="currentColor"
       stroke-width="1.00"
       stroke-linecap="butt"
       stroke-linejoin="miter"
       id="g1785">
      <path
         stroke="black"
         d="M360.5,78.0 L368.0,78.0  "
         id="path1777" />
      <g
         transform="translate(353.5,81.3)"
         stroke="none"
         fill="black"
         font-family="arial"
         font-size="10.00"
         text-anchor="end"
         id="g1783">
        <text
           id="text1781">
          <tspan
             font-family="arial"
             id="tspan1779"> 100</tspan>
        </text>
      </g>
    </g>
    <g
       fill="none"
       color="black"
       stroke="currentColor"
       stroke-width="1.00"
       stroke-linecap="butt"
       stroke-linejoin="miter"
       id="g1795">
      <path
         stroke="black"
         d="M360.5,15.1 L368.0,15.1  "
         id="path1787" />
      <g
         transform="translate(353.5,18.4)"
         stroke="none"
         fill="black"
         font-family="arial"
         font-size="10.00"
         text-anchor="end"
         id="g1793">
        <text
           id="text1791">
          <tspan
             font-family="arial"
             id="tspan1789"> 200</tspan>
        </text>
      </g>
    </g>
    <g
       fill="none"
       color="black"
       stroke="currentColor"
       stroke-width="1.00"
       stroke-linecap="butt"
       stroke-linejoin="miter"
       id="g1805">
      <path
         stroke="black"
         d="M360.5,147.8 L360.5,140.3  "
         id="path1797" />
      <g
         transform="translate(360.5,166.1)"
         stroke="none"
         fill="black"
         font-family="arial"
         font-size="10.00"
         text-anchor="middle"
         id="g1803">
        <text
           id="text1801">
          <tspan
             font-family="arial"
             id="tspan1799"> 0</tspan>
        </text>
      </g>
    </g>
    <g
       fill="none"
       color="black"
       stroke="currentColor"
       stroke-width="1.00"
       stroke-linecap="butt"
       stroke-linejoin="miter"
       id="g1815">
      <path
         stroke="black"
         d="M404.2,147.8 L404.2,140.3  "
         id="path1807" />
      <g
         transform="translate(404.2,166.1)"
         stroke="none"
         fill="black"
         font-family="arial"
         font-size="10.00"
         text-anchor="middle"
         id="g1813">
        <text
           id="text1811">
          <tspan
             font-family="arial"
             id="tspan1809"> 0.2</tspan>
        </text>
      </g>
    </g>
    <g
       fill="none"
       color="black"
       stroke="currentColor"
       stroke-width="1.00"
       stroke-linecap="butt"
       stroke-linejoin="miter"
       id="g1825">
      <path
         stroke="black"
         d="M447.9,147.8 L447.9,140.3  "
         id="path1817" />
      <g
         transform="translate(447.9,166.1)"
         stroke="none"
         fill="black"
         font-family="arial"
         font-size="10.00"
         text-anchor="middle"
         id="g1823">
        <text
           id="text1821">
          <tspan
             font-family="arial"
             id="tspan1819"> 0.4</tspan>
        </text>
      </g>
    </g>
    <g
       fill="none"
       color="black"
       stroke="currentColor"
       stroke-width="1.00"
       stroke-linecap="butt"
       stroke-linejoin="miter"
       id="g1835">
      <path
         stroke="black"
         d="M491.5,147.8 L491.5,140.3  "
         id="path1827" />
      <g
         transform="translate(491.5,166.1)"
         stroke="none"
         fill="black"
         font-family="arial"
         font-size="10.00"
         text-anchor="middle"
         id="g1833">
        <text
           id="text1831">
          <tspan
             font-family="arial"
             id="tspan1829"> 0.6</tspan>
        </text>
      </g>
    </g>
    <g
       fill="none"
       color="black"
       stroke="currentColor"
       stroke-width="1.00"
       stroke-linecap="butt"
       stroke-linejoin="miter"
       id="g1845">
      <path
         stroke="black"
         d="M535.2,147.8 L535.2,140.3  "
         id="path1837" />
      <g
         transform="translate(535.2,166.1)"
         stroke="none"
         fill="black"
         font-family="arial"
         font-size="10.00"
         text-anchor="middle"
         id="g1843">
        <text
           id="text1841">
          <tspan
             font-family="arial"
             id="tspan1839"> 0.8</tspan>
        </text>
      </g>
    </g>
    <g
       fill="none"
       color="black"
       stroke="currentColor"
       stroke-width="1.00"
       stroke-linecap="butt"
       stroke-linejoin="miter"
       id="g1855">
      <path
         stroke="black"
         d="M578.9,147.8 L578.9,140.3  "
         id="path1847" />
      <g
         transform="translate(578.9,166.1)"
         stroke="none"
         fill="black"
         font-family="arial"
         font-size="10.00"
         text-anchor="middle"
         id="g1853">
        <text
           id="text1851">
          <tspan
             font-family="arial"
             id="tspan1849"> 1</tspan>
        </text>
      </g>
    </g>
    <g
       fill="none"
       color="black"
       stroke="currentColor"
       stroke-width="1.00"
       stroke-linecap="butt"
       stroke-linejoin="miter"
       id="g1857" />
    <g
       fill="none"
       color="black"
       stroke="currentColor"
       stroke-width="1.00"
       stroke-linecap="butt"
       stroke-linejoin="miter"
       id="g1867">
      <path
         stroke="black"
         d="M360.5,15.1 L360.5,147.8 L578.9,147.8 M578.9,15.1 M360.5,15.1  "
         id="path1859" />
      <g
         transform="translate(371.4,19.0)"
         stroke="none"
         fill="black"
         font-family="arial"
         font-size="12.00"
         text-anchor="start"
         id="g1865">
        <text
           id="text1863">
          <tspan
             font-family="arial"
             id="tspan1861">B</tspan>
        </text>
      </g>
    </g>
    <g
       fill="none"
       color="black"
       stroke="currentColor"
       stroke-width="1.00"
       stroke-linecap="butt"
       stroke-linejoin="miter"
       id="g1879">
      <g
         transform="translate(329.9,81.5) rotate(270)"
         stroke="none"
         fill="black"
         font-family="arial"
         font-size="10.00"
         text-anchor="middle"
         id="g1877">
        <text
           id="text1875">
          <tspan
             font-family="arial"
             id="tspan1869">VO</tspan>
          <tspan
             font-family="arial"
             font-size="8.0"
             dy="3.00px"
             id="tspan1871">2</tspan>
          <tspan
             font-family="arial"
             font-size="10.0"
             dy="-3.00px"
             id="tspan1873"> (nmol/mg/min)</tspan>
        </text>
      </g>
    </g>
    <g
       fill="none"
       color="black"
       stroke="currentColor"
       stroke-width="1.00"
       stroke-linecap="butt"
       stroke-linejoin="miter"
       id="g1887">
      <g
         transform="translate(469.7,178.1)"
         stroke="none"
         fill="black"
         font-family="arial"
         font-size="10.00"
         text-anchor="middle"
         id="g1885">
        <text
           id="text1883">
          <tspan
             font-family="arial"
             id="tspan1881">max ATPase, arbitrary units</tspan>
        </text>
      </g>
    </g>
    <g
       fill="none"
       color="black"
       stroke="currentColor"
       stroke-width="1.00"
       stroke-linecap="butt"
       stroke-linejoin="miter"
       id="g1889" />
    <g
       id="gnuplot_plot_1b">
      <title
         id="title1891">gnuplot_plot_1b</title>
      <g
         fill="none"
         color="white"
         stroke="currentColor"
         stroke-width="1.50"
         stroke-linecap="butt"
         stroke-linejoin="miter"
         id="g1893" />
      <g
         fill="none"
         color="black"
         stroke="currentColor"
         stroke-width="1.50"
         stroke-linecap="butt"
         stroke-linejoin="miter"
         id="g1897">
        <path
           stroke="rgb(245, 121,   0)"
           d="M578.9,41.8 L577.5,42.2 L576.1,42.6 L574.8,43.0 L573.4,43.5 L572.0,43.9 L570.6,44.3 L569.2,44.7   L567.8,45.1 L566.5,45.5 L565.1,46.0 L563.7,46.4 L562.3,46.8 L560.9,47.2 L559.5,47.6 L558.2,48.0   L556.8,48.4 L555.4,48.8 L554.0,49.3 L552.6,49.7 L551.2,50.1 L549.9,50.5 L548.5,50.9 L547.1,51.3   L545.7,51.7 L544.3,52.1 L542.9,52.5 L541.6,52.9 L540.2,53.3 L538.8,53.7 L537.4,54.1 L536.0,54.5   L534.6,54.9 L533.3,55.3 L531.9,55.7 L530.5,56.0 L529.1,56.4 L527.7,56.8 L526.3,57.2 L525.0,57.6   L523.6,58.0 L522.2,58.3 L520.8,58.7 L519.4,59.1 L518.0,59.5 L516.7,59.8 L515.3,60.2 L513.9,60.6   L512.5,60.9 L511.1,61.3 L509.7,61.7 L508.4,62.0 L507.0,62.4 L505.6,62.7 L504.2,63.0 L502.8,63.4   L501.4,63.7 L500.1,64.1 L498.7,64.4 L497.3,64.7 L495.9,65.0 L494.5,65.3 L493.1,65.6 L491.8,65.9   L490.4,66.2 L489.0,66.5 L487.6,66.8 L486.2,67.1 L484.8,67.3 L483.5,67.6 L482.1,67.8 L480.7,68.0   L479.3,68.2 L477.9,68.4 L476.5,68.6 L475.2,68.8 L473.8,68.9 L472.4,69.1 L471.0,69.1 L469.6,69.2   L468.2,69.2 L466.9,69.2 L465.5,69.1 L464.1,69.0 L462.7,68.8 L461.3,68.4 L459.9,67.8 L458.6,67.0   L457.2,65.4  "
           id="path1895" />
      </g>
    </g>
    <g
       id="gnuplot_plot_2b">
      <title
         id="title1900">gnuplot_plot_2b</title>
      <g
         fill="none"
         color="black"
         stroke="currentColor"
         stroke-width="1.50"
         stroke-linecap="butt"
         stroke-linejoin="miter"
         id="g1904">
        <path
           stroke="rgb( 52, 101, 164)"
           d="M371.4,139.3 L372.8,139.3 L374.2,139.3 L375.6,139.3 L377.0,139.3 L378.3,139.3 L379.7,139.3 L381.1,139.3   L382.5,139.3 L383.9,139.3 L385.3,139.3 L386.6,139.3 L388.0,139.3 L389.4,139.3 L390.8,139.3 L392.2,139.3   L393.6,139.3 L394.9,139.3 L396.3,139.3 L397.7,139.3 L399.1,139.3 L400.5,139.3 L401.9,139.3 L403.2,139.3   L404.6,139.3 L406.0,139.3 L407.4,139.3 L408.8,139.3 L410.1,139.3 L411.5,139.3 L412.9,139.3 L414.3,139.3   L415.7,139.3 L417.1,139.3 L418.4,139.3 L419.8,139.3 L421.2,139.3 L422.6,139.3 L424.0,139.3 L425.4,139.3   L426.7,139.3 L428.1,139.3 L429.5,139.3 L430.9,139.3 L432.3,139.3 L433.7,139.3 L435.0,139.3 L436.4,139.3   L437.8,139.3 L439.2,139.3 L440.6,139.3 L442.0,139.3 L443.3,139.3 L444.7,139.3 L446.1,139.3 L447.5,139.3   L448.9,139.3 L450.3,139.3 L451.6,139.3 L453.0,139.3 L454.4,139.3 L455.8,139.3 L457.2,139.3 L458.6,139.3   L459.9,139.3 L461.3,139.3 L462.7,139.3 L464.1,139.3 L465.5,139.3 L466.9,139.3 L468.2,139.3 L469.6,139.3   L471.0,139.3 L472.4,139.3 L473.8,139.3 L475.2,139.3 L476.5,139.3 L477.9,139.3 L479.3,139.3 L480.7,139.3   L482.1,139.3 L483.5,139.3 L484.8,139.3 L486.2,139.3 L487.6,139.3 L489.0,139.3 L490.4,139.3 L491.8,139.3   L493.1,139.3 L494.5,139.3 L495.9,139.3 L497.3,139.3 L498.7,139.3 L500.1,139.3 L501.4,139.3 L502.8,139.3   L504.2,139.3 L505.6,139.3 L507.0,139.3 L508.4,139.3 L509.7,139.3 L511.1,139.3 L512.5,139.3 L513.9,139.3   L515.3,139.3 L516.7,139.3 L518.0,139.3 L519.4,139.3 L520.8,139.3 L522.2,139.3 L523.6,139.3 L525.0,139.3   L526.3,139.3 L527.7,139.3 L529.1,139.3 L530.5,139.3 L531.9,139.3 L533.3,139.3 L534.6,139.3 L536.0,139.3   L537.4,139.3 L538.8,139.3 L540.2,139.3 L541.6,139.3 L542.9,139.3 L544.3,139.3 L545.7,139.3 L547.1,139.3   L548.5,139.3 L549.9,139.3 L551.2,139.3 L552.6,139.3 L554.0,139.3 L555.4,139.3 L556.8,139.3 L558.2,139.3   L559.5,139.3 L560.9,139.3 L562.3,139.3 L563.7,139.3 L565.1,139.3 L566.5,139.3 L567.8,139.3 L569.2,139.3   L570.6,139.3 L572.0,139.3 L573.4,139.3 L574.8,139.3 L576.1,139.3 L577.5,139.3 L578.9,139.3  "
           id="path1902" />
      </g>
    </g>
    <g
       fill="none"
       color="white"
       stroke="rgb( 52, 101, 164)"
       stroke-width="2.00"
       stroke-linecap="butt"
       stroke-linejoin="miter"
       id="g1907" />
    <g
       fill="none"
       color="black"
       stroke="currentColor"
       stroke-width="2.00"
       stroke-linecap="butt"
       stroke-linejoin="miter"
       id="g1909" />
    <g
       fill="none"
       color="black"
       stroke="black"
       stroke-width="1.00"
       stroke-linecap="butt"
       stroke-linejoin="miter"
       id="g1911" />
    <g
       fill="none"
       color="black"
       stroke="currentColor"
       stroke-width="1.00"
       stroke-linecap="butt"
       stroke-linejoin="miter"
       id="g1915">
      <path
         stroke="black"
         d="M360.5,15.1 L360.5,147.8 L578.9,147.8 M578.9,15.1 M360.5,15.1  "
         id="path1913" />
    </g>
    <g
       fill="none"
       color="black"
       stroke="currentColor"
       stroke-width="1.00"
       stroke-linecap="butt"
       stroke-linejoin="miter"
       id="g1917" />
  </g>
  <ellipse
     style="opacity:0.51999996;fill:none;fill-opacity:1;stroke:#090008;stroke-width:1.54799998;stroke-miterlimit:4;stroke-dasharray:none;stroke-dashoffset:0;stroke-opacity:1;filter:url(#filter2046)"
     id="path1928"
     cx="456.93069"
     cy="65.940598"
     rx="3.9603961"
     ry="3.2178218" />
  <ellipse
     style="opacity:0.51999996;fill:none;fill-opacity:1;stroke:#090008;stroke-width:1.54799998;stroke-miterlimit:4;stroke-dasharray:none;stroke-dashoffset:0;stroke-opacity:1;filter:url(#filter2046-3)"
     id="path1928-7"
     cx="157.92079"
     cy="135"
     rx="3.9603961"
     ry="3.2178218" />
</svg>
